<svg xmlns="http://www.w3.org/2000/svg" viewBox="0 0 395.71 246.35"><defs><style>.cls-1{fill:#fff;}</style></defs><g id="Capa_2" data-name="Capa 2"><g id="Capa_1-2" data-name="Capa 1"><ellipse class="cls-1" cx="197.85" cy="123.17" rx="197.85" ry="123.17"/><path d="M138.18,107.4a30.44,30.44,0,0,0-1.91-2.8,13,13,0,0,1-.69-14.9l.08-.11a22.66,22.66,0,0,0,3.61-12.53c-.08-4.53-.18-11.12-.26-16.89a12.66,12.66,0,0,0-12.49-12.49c-6.1-.09-12.79-.16-19.43-.23a7.35,7.35,0,0,0-7.42,7.35v5.43a13.42,13.42,0,0,0,4.86,10.47,10,10,0,0,1,1.29,1.24,12.64,12.64,0,0,1,3.36,8.65,11.06,11.06,0,0,1-3.27,7.82,11.56,11.56,0,0,1-1.35,1.17l0,0c-.27.19-.54.37-.83.54l-.33.19-.42.23-.07,0c-10.52,5.22-26,4.65-33.48,6.47-.2.05-.4,0-.6.08-5,1.22-11.11,5-14.14,10.08A33.88,33.88,0,0,0,50,124.8a31,31,0,0,0,10.59,24Q73,160.1,96.58,160.1q23.36,0,36-11.43A31.13,31.13,0,0,0,143,124.8,33.25,33.25,0,0,0,138.18,107.4ZM107,132.7q-3.7,3.69-10.42,3.7-6.56,0-10.42-3.87A13,13,0,0,1,82.29,123a12.61,12.61,0,0,1,3.95-9.5,14.33,14.33,0,0,1,10.34-3.78A13.13,13.13,0,0,1,106.83,114a14.22,14.22,0,0,1,3.87,9.83A12.17,12.17,0,0,1,107,132.7Z"/><path d="M257.53,139a28.57,28.57,0,0,0,1.91,2.8,13,13,0,0,1,.68,14.9l-.07.11a22.57,22.57,0,0,0-3.61,12.52c.08,4.54.17,11.13.25,16.9a12.67,12.67,0,0,0,12.5,12.49l19.43.23a7.35,7.35,0,0,0,7.42-7.35v-5.43a13.42,13.42,0,0,0-4.86-10.47,10.77,10.77,0,0,1-1.29-1.24,12.68,12.68,0,0,1-3.37-8.66,11,11,0,0,1,3.28-7.81,9.93,9.93,0,0,1,1.35-1.17l.05,0a8.27,8.27,0,0,1,.82-.54l.34-.2.42-.22.07,0c10.52-5.22,26-4.65,33.48-6.48.2,0,.4,0,.6-.07,5-1.23,11.11-5,14.14-10.09a33.84,33.84,0,0,0,4.62-17.56,31.06,31.06,0,0,0-10.59-24q-12.44-11.25-36-11.26-23.36,0-36,11.43a31.12,31.12,0,0,0-10.42,23.87A33.27,33.27,0,0,0,257.53,139Zm31.18-25.3q3.71-3.7,10.42-3.7,6.56,0,10.42,3.87a13,13,0,0,1,3.87,9.58,12.59,12.59,0,0,1-3.95,9.49,14.29,14.29,0,0,1-10.34,3.79,13.13,13.13,0,0,1-10.25-4.29,14.24,14.24,0,0,1-3.87-9.83A12.15,12.15,0,0,1,288.71,113.65Z"/><path d="M94.08,152c.25-.18.52-.36.82-.54C94.62,151.58,94.35,151.76,94.08,152Z"/><path d="M95.24,151.22l.42-.22Z"/><path d="M94,152l0,0Z"/><path d="M94.9,151.41l.34-.19Z"/><path d="M215.45,109.67a12.49,12.49,0,0,0-3.34,11.2,14.24,14.24,0,0,1,.24,2.64,12.14,12.14,0,0,1-3.7,8.9q-3.71,3.71-10.42,3.7-6.55,0-10.42-3.86a13,13,0,0,1-3.87-9.58,14.3,14.3,0,0,1,.24-2.66,12.5,12.5,0,0,0-3.83-11.21l-5.11-4.86a11.92,11.92,0,0,0-16.57.09,14.53,14.53,0,0,0-2.38,2.92,33.88,33.88,0,0,0-4.62,17.57,31.05,31.05,0,0,0,10.59,24q12.44,11.26,36,11.26,23.36,0,36-11.43a31.09,31.09,0,0,0,10.42-23.86,33.22,33.22,0,0,0-4.79-17.4,1.4,1.4,0,0,0-.1-.16,12.38,12.38,0,0,0-19.26-2.25Z"/></g></g></svg>