<svg xmlns="http://www.w3.org/2000/svg" viewBox="0 0 1059.8 542.86"><g id="Capa_2" data-name="Capa 2"><g id="Capa_1-2" data-name="Capa 1"><path d="M316,214.9a100.48,100.48,0,0,0-6.84-10.06,46.49,46.49,0,0,1-2.45-53.39c.08-.14.17-.28.26-.42,8.63-13.85,13.24-28.81,13-44.88-.29-16.27-.63-39.88-.91-60.56A45.41,45.41,0,0,0,274.2.81C252.36.52,228.35.25,204.57,0A26.35,26.35,0,0,0,178,26.35V45.82a48.15,48.15,0,0,0,17.43,37.52A38.79,38.79,0,0,1,200,87.78q12,13.55,12,31,0,15.67-11.75,28a35.58,35.58,0,0,1-4.84,4.18l-.18.13a34.8,34.8,0,0,1-3,1.93c-.39.23-.79.47-1.21.69s-1,.55-1.49.8l-.24.12c-37.71,18.7-93.32,16.66-120,23.2-.71.18-1.43.11-2.14.28-18,4.39-39.84,17.81-50.68,36.14Q0,242.31,0,277.25q0,51.83,38,86.15,44.57,40.38,128.92,40.37,83.73,0,128.93-41,37.35-34.33,37.35-85.55A119,119,0,0,0,316,214.9ZM204.24,305.57Q191,318.83,166.88,318.82q-23.49,0-37.35-13.86t-13.86-34.34q0-20.46,14.16-34t37-13.56q22.89,0,36.75,15.36t13.86,35.25A43.53,43.53,0,0,1,204.24,305.57Z"/><path d="M743.81,328A101.65,101.65,0,0,0,750.65,338a46.49,46.49,0,0,1,2.45,53.39c-.08.14-.17.27-.26.41-8.63,13.86-13.24,28.82-13,44.89.29,16.26.63,39.88.92,60.56A45.38,45.38,0,0,0,785.6,542c21.84.3,45.85.56,69.63.82a26.35,26.35,0,0,0,26.62-26.35V497c0-14.46-6.18-28.43-17.43-37.52a39.55,39.55,0,0,1-4.64-4.44q-12-13.56-12-31,0-15.68,11.75-28a36.37,36.37,0,0,1,4.84-4.19l.18-.12a34.9,34.9,0,0,1,3-1.94l1.21-.69c.49-.26,1-.54,1.49-.79l.24-.13c37.71-18.69,93.32-16.65,120-23.2.71-.17,1.43-.1,2.14-.27,18.05-4.39,39.84-17.81,50.68-36.15q16.57-28,16.57-62.95,0-51.83-37.95-86.16-44.58-40.37-128.93-40.36-83.73,0-128.93,41-37.35,34.35-37.35,85.56A119,119,0,0,0,743.81,328Zm111.75-90.67Q868.82,224,892.92,224q23.49,0,37.35,13.86t13.86,34.34q0,20.47-14.16,34t-37.05,13.56q-22.89,0-36.75-15.37t-13.86-35.24A43.57,43.57,0,0,1,855.56,237.29Z"/><path d="M157.93,374.58a34.29,34.29,0,0,1,2.95-1.93C159.86,373.25,158.88,373.89,157.93,374.58Z"/><path d="M162.09,372l1.5-.79C163.08,371.41,162.59,371.69,162.09,372Z"/><path d="M157.76,374.71l.17-.13Z"/><path d="M160.88,372.65l1.21-.7Z"/><path d="M593,223c-10.58,10.45-14.63,25.5-12,40.13a52.43,52.43,0,0,1,.84,9.46,43.53,43.53,0,0,1-13.25,31.93q-13.26,13.26-37.35,13.26-23.5,0-37.36-13.86T480,269.61a52.25,52.25,0,0,1,.84-9.51c2.73-14.75-2.87-29.83-13.73-40.18l-18.3-17.45a42.8,42.8,0,0,0-59.41.33,52.48,52.48,0,0,0-8.51,10.48q-16.57,28-16.57,63,0,51.81,38,86.15,44.58,40.37,128.93,40.36,83.73,0,128.92-41,37.35-34.35,37.36-85.55a119.08,119.08,0,0,0-17.17-62.36l-.35-.57c-14.82-24.37-48.77-28.11-69.06-8.06Z"/></g></g></svg>